<svg version="1.2" xmlns="http://www.w3.org/2000/svg" viewBox="0 0 613 446" width="613" height="446"><defs><clipPath clipPathUnits="userSpaceOnUse" id="cp1"><path d="m612.78 445.5h-612.28v-866.46h612.28z"/></clipPath></defs><style>.a{fill:#7fbdc9}.b{fill:#267a9f}.c{fill:#102e42}</style><g clip-path="url(#cp1)"><path class="a" d="m-36.7-13c0 0 137.1 44.4 186.2 92.7 49 48.3 139.1 16.8 176.3 40.2 37.2 23.4 175.3 86.4 209 125.8 33.8 39.5 124.2 45.7 124.2 45.7v230.1h-695.7z"/><path class="b" d="m-37.5 477.8c0 0-0.1-32.8 12.6-48 12.7-15.2 154.3-136.3 223.4-117.7 69.1 18.6 150.9-138.8 221.8-150.3 70.8-11.4 161.8-108.9 254.5-98v414z"/><path class="c" d="m489.6 30.8c-53 7.5-114.5 12.9-183 12.9-53.6 0-115.2-3.3-183-12.9q0-8.3 0-16.6c54.8 5.7 115.7 9.5 181.8 9.6 67 0 128.7-3.8 184.2-9.6q0 8.3 0 16.6z"/><path class="c" d="m457.8 46.9c-43.8 6.2-94.6 10.7-151.2 10.7-44.2 0-95.2-2.8-151.1-10.7 0-4.6 0-11.1 0-15.7 45.2 4.8 95.5 7.9 150.1 8 55.4 0 106.4-3.1 152.2-8 0 4.6 0 11.1 0 15.7z"/><path class="c" d="m238.6 235.4h-19.9v-191h19.9z"/><path class="c" d="m394.6 235.4h-19.9v-191h19.9z"/><path class="c" d="m450.2 113.9h-287.1v-20.8h287.1z"/><path class="c" d="m256 244.5h-55.2v-9.1h55.2z"/><path class="c" d="m263.1 253.7h-69.4v-9.2h69.4z"/><path class="c" d="m412.3 244.5h-55.2v-9.1h55.2z"/><path class="c" d="m419.4 253.7h-69.5v-9.2h69.5z"/><path class="c" d="m-37.5 166c0 0 98.6 3.6 139.1 25.6 40.4 21.9 93.8 62.3 93.8 62.3h247.9c0 0 55.4-1.1 83.9 32.8 28.6 33.9 54.7 64 67.8 71.7 13.1 7.7 36 13.2 36 13.2v91.6h-677.8z"/></g></svg>