<svg version="1.2" xmlns="http://www.w3.org/2000/svg" viewBox="0 0 613 512" width="613" height="512"><defs><clipPath clipPathUnits="userSpaceOnUse" id="cp1"><path d="m612.34 866.5h-612.28v-866.46h612.28z"/></clipPath></defs><style>.a{fill:#102e42}</style><g clip-path="url(#cp1)"><path class="a" d="m-63.4 736.5v-656c33.5-40.6 62-47.7 98.2-55.4 36.2-7.7 80.4 1.5 97.8 20.6 17.5 19 46.2 18.1 66.3 14.3 20.1-3.8 65.2-28.2 84-34.5 18.7-6.3 38.2 6.3 38.2 6.3l-1.5 7.2c0 0-5.1-3.6-27.7-7.2-22.6-3.6-119.2 85.2-151.6 42.1-32.3-43.2-114.1-32.8-142.2-8.6-28.2 24.2-15.4 72.8-8.8 110.8 6.7 38-12.6 173.6-9.2 169.5 3.3-4.1 63.7-92.4 71.9-105.3 8.2-12.8 77-66.3 89.4-70.9 12.3-4.6 60.1-30.8 79.4-41.9 19.3-11.2 70.8-37.8 78.3-43 7.5-5.3 24.1-14.7 24.1-14.7 0 0 2.1 6.1 0 9.2-2.1 3.1-40.6 25.7-62.1 33.9-21.6 8.2-59.9 41.9-59.9 41.9 9.5 0.2 70.6-0.3 89.6-8.5 19-8.2 64.7-50.5 90.1-73.9 25.3-23.4 105.5-51.8 128.1-53.4 22.6-1.7 131.6-29.4 131.6-29.4v6.7c0 0-229 51.9-247.9 76.1-18.8 24.2-80.9 99.1-142.9 91.4-62.1-7.8-127.9 12.3-174.2 76.4-46.2 64.1-92.4 222.5-92.4 222.5 11.1-6.7 76.3-60.8 83.9-65.2 7.6-4.4 30.5-30.3 39.3-39.8 8.8-9.6 50.1-65.3 59.6-72.4 9.5-7.2 32.6-15.7 37.5-19.3 4.9-3.6 7.9-10.6 13.6-13.6 5.6-3 24.1-9.3 31.6-10.8 7.4-1.5 22.8-13.1 27.5-16.2 4.6-3.1 10.2-11.9 10.2-11.9l6.2 0.1c0 0-8.7 9.2-17 18-8.2 8.7-29.8 16.4-45.6 21-15.9 4.7-19.1 19-7.3 14.4 11.8-4.6 47-13.7 51.9-15.4 4.9-1.7 25.7-7.2 31.8-11.4 6.1-4.3 46.3-24 46.3-24l3.6 4.1c0 0-33.9 18.5-56.5 30.8-22.6 12.3-84.3 19.5-114.1 29.8-29.7 10.2-63.6 90.4-100.6 116.1-37 25.7-95.3 112.2-90.5 143.9 4.8 31.7-8.1 60.5-12.7 77.9-4.5 17.3 11.8 121.4 11.8 121.4z"/></g></svg>