<svg version="1.2" xmlns="http://www.w3.org/2000/svg" viewBox="0 0 412 412" width="412" height="412">
	<title>malumelogo</title>
	<style>
		.s0 { fill: #000000 } 
		.s1 { opacity: .2;fill: #ffffff } 
	</style>
	<g id="Layer 2">
		<path id="Path 0" fill-rule="evenodd" class="s0" d="m154 18.3c11 0.2 18.3 1 25 2.5 5.2 1.1 12 2.8 15 3.8 3 0.9 9.1 3.2 13.5 5.1 4.4 1.9 10.7 5.1 14 7.1 3.3 1.9 9.2 5.9 13 8.8 3.8 2.8 10.4 8.5 14.5 12.5 4.1 4.1 9.9 10.8 13 14.9 3 4.1 7.4 10.9 9.7 15 2.3 4.1 5.8 11.8 7.8 17 2 5.2 4.5 13.1 5.6 17.5 1 4.4 2.3 13.2 3 19.5 0.9 8.9 0.9 14.2-0.1 23.5-0.6 6.6-2.2 16.1-3.5 21-1.2 4.9-3.9 13.1-6 18-2 4.9-5.7 12.4-8.1 16.5-2.4 4.1-6.6 10.4-14.3 20.5l2.7 2.8c2.6 2.6 3.2 2.7 20.2 2.7l103 104.5-8.2 7.5c-4.5 4.1-11.3 11-22.3 23l-104.5-103v-8.8c0-8.2-0.1-8.8-5.5-14.1l-6.5 5c-3.6 2.7-9.9 6.9-14 9.4-4.1 2.4-11.6 6.1-16.5 8.1-4.9 2-13.1 4.7-18 5.9-4.9 1.3-14.4 2.9-21 3.5-9.3 1-14.6 1-23.5 0.1-6.3-0.7-15.1-2-19.5-3-4.4-1.1-12.3-3.6-17.5-5.6-5.2-2-12.9-5.5-17-7.8-4.1-2.3-10.9-6.7-15-9.7-4.1-3.1-10.8-8.9-14.9-13-4-4.1-9.7-10.7-12.5-14.5-2.9-3.8-6.9-9.7-8.8-13-2-3.3-5.2-9.6-7.1-14-1.9-4.4-4.4-11.2-5.5-15-1.2-3.8-2.8-11.1-3.8-16-1.1-5.7-1.7-14.1-1.7-23 0-8.9 0.6-17.3 1.7-23 1-5 2.6-12.2 3.8-16 1.1-3.8 3.7-10.8 5.7-15.5 2-4.7 6.6-13 10.3-18.5 3.6-5.5 9-12.8 11.9-16.2 3-3.4 8.3-8.7 11.9-11.8 3.6-3.2 11-8.7 16.5-12.3 5.5-3.7 13.8-8.3 18.5-10.3 4.7-2 11-4.4 14-5.3 3-1 9.8-2.6 15-3.7 5.2-1 9.7-2.1 10-2.4 0.2-0.3 7.4-0.4 16-0.2zm-30.5 46.8c-5 1.7-11.9 4.7-15.5 6.7-3.6 2-9.9 6.3-14 9.7-4 3.3-10.2 9.6-13.7 14-3.5 4.4-8.1 11.6-10.3 16-2.1 4.4-5.1 12-6.6 17-2.5 8.2-2.8 10.5-2.8 25 0 14.5 0.3 16.8 2.8 25 1.5 4.9 4.5 12.6 6.6 17 2.2 4.4 7 11.8 10.7 16.4 3.8 4.7 9.7 10.8 13.3 13.6 3.6 2.9 9.2 6.8 12.5 8.8 3.3 2 9.6 5 14 6.6 4.4 1.6 11.8 3.6 16.5 4.5 4.7 0.9 12.3 1.6 17 1.6 4.7 0 12.6-0.9 17.5-1.9 4.9-1 12.6-3.3 17-5 4.4-1.7 11.6-5.4 16-8.3 4.4-2.9 11.2-8.4 15-12.3 3.9-3.8 9.4-10.6 12.3-15 2.9-4.4 6.6-11.6 8.3-16 1.7-4.4 4-12.1 5-17 1-4.9 1.9-12.8 1.9-17.5 0-4.7-0.7-12.3-1.6-17-0.9-4.7-2.9-12.1-4.5-16.5-1.6-4.4-4.6-10.7-6.6-14-2-3.3-5.9-8.9-8.8-12.5-2.8-3.6-8.9-9.5-13.6-13.3-4.6-3.7-12-8.5-16.4-10.7-4.4-2.1-12.1-5.1-17-6.5-7.2-2.1-11.7-2.8-22-3-7.2-0.2-15.5 0-18.5 0.6-3 0.5-9.6 2.3-14.5 4z"/>
		<path id="Path 1" class="s1" d="m424 434h23v13h-23v-6.5z"/>
	</g>
</svg>